<?xml version="1.0" standalone="no"?>
<!DOCTYPE svg PUBLIC "-//W3C//DTD SVG 20010904//EN"
 "http://www.w3.org/TR/2001/REC-SVG-20010904/DTD/svg10.dtd">
<svg version="1.0" xmlns="http://www.w3.org/2000/svg"
 width="32.000000pt" height="32.000000pt" viewBox="0 0 32.000000 32.000000"
 preserveAspectRatio="xMidYMid meet">

<g transform="translate(0.000000,32.000000) scale(0.100000,-0.100000)"
fill="#EE3643" stroke="none">
<path d="M0 160 l0 -160 160 0 160 0 0 160 0 160 -160 0 -160 0 0 -160z m195
65 c0 -25 -4 -30 -28 -33 -15 -2 -25 -8 -21 -13 3 -5 0 -17 -7 -25 -13 -16
-13 -16 16 -32 17 -10 10 -11 -37 -12 l-57 0 15 28 c19 37 18 52 -6 52 -16 0
-20 7 -20 35 l0 36 73 -3 72 -3 0 -30z m94 9 c9 -8 -14 -22 -46 -29 -31 -6
-33 -5 -33 20 0 25 2 26 38 19 20 -4 39 -8 41 -10z m-119 -154 c0 -18 -7 -20
-55 -20 -48 0 -55 2 -55 20 0 18 7 20 55 20 48 0 55 -2 55 -20z"/>
<path d="M83 243 c15 -2 39 -2 55 0 15 2 2 4 -28 4 -30 0 -43 -2 -27 -4z"/>
</g>
</svg>
